<svg width="512" height="512" viewBox="0 0 512 512" fill="none" xmlns="http://www.w3.org/2000/svg">
<g clip-path="url(#clip0_723_6)">
<path fill-rule="evenodd" clip-rule="evenodd" d="M448 512H360.001C337.907 512 320.002 494.078 320.002 472V360.001C320.002 337.907 337.907 320.002 360.001 320.002H372.923C381.243 320.002 389.767 313.346 391.985 304.971L400.469 273.018C402.953 263.706 397.657 255.995 388.617 255.995H360C337.906 255.995 320.001 238.093 320.001 216.007V200.007C320.001 177.905 337.906 160 360 160H384.008C392.828 160 400.008 152.844 400.008 144V111.996C400.008 103.168 392.828 95.992 384.008 95.992H336C291.813 95.992 256.009 131.82 256.009 176.003V216.007C256.009 238.092 238.087 255.995 216.006 255.995H208.381C199.342 255.995 192.002 263.706 192.002 273.018V304.971C192.002 313.346 198.748 320.002 207.072 320.002H216.006C238.088 320.002 256.009 337.907 256.009 360.001V472C256.009 494.078 238.087 512 216.006 512H208.006C199.162 512 192.002 504.828 192.002 496C192.002 487.156 199.162 480 208.006 480C216.83 480 224.006 472.828 224.006 464V368.001C224.006 359.157 216.831 352.001 208.006 352.001H197.51C176.791 352.001 159.999 335.423 159.999 314.424V266.502C159.999 243.346 178.37 223.99 201.026 223.99H208.006C216.83 223.99 224.006 216.83 224.006 208.006V168.002C224.006 110.561 270.565 64.007 328.001 64.007H392.009C414.095 64.007 431.993 81.909 431.993 103.995V151.999C431.993 174.084 414.095 192.002 392.009 192.002H352.001V208.006C352.001 216.83 359.157 223.99 368.001 223.99H397.97C420.642 223.99 435.368 243.345 431.032 266.502L422.04 314.424C418.11 335.423 398.22 352.001 377.501 352.001H368.001C359.157 352.001 352.001 359.157 352.001 368.001V464C352.001 472.828 359.157 480 368.001 480H448C465.672 480 480 465.672 480 448V64.007C480 46.319 465.672 32.004 448 32.004H64.007C46.335 32.004 32.004 46.32 32.004 64.007V448C32.004 465.672 46.336 480 64.007 480H80.007C88.835 480 96.01 487.156 96.01 496C96.01 504.828 88.835 512 80.007 512H64.007C28.668 512 0 483.344 0 448V64.007C0 28.648 28.668 0 64.007 0H448C483.359 0 512 28.648 512 64.007V448C512 483.344 483.359 512 448 512ZM143.999 480C152.843 480 159.999 487.156 159.999 496C159.999 504.828 152.843 512 143.999 512C135.171 512 127.995 504.828 127.995 496C127.995 487.156 135.171 480 143.999 480Z" fill="white"/>
</g>
<defs>
<clipPath id="clip0_723_6">
<rect width="512" height="512" fill="white"/>
</clipPath>
</defs>
</svg>
