<svg width="512" height="512" viewBox="0 0 512 512" fill="none" xmlns="http://www.w3.org/2000/svg">
<path fill-rule="evenodd" clip-rule="evenodd" d="M192 368.004C192 359.16 199.156 352.004 208 352.004C216.844 352.004 224 359.16 224 368.004C224 376.848 216.844 384.004 208 384.004C199.156 384.004 192 376.848 192 368.004ZM349.328 494.16C345.062 495.379 340.656 496.254 336 496.254C309.484 496.254 288 474.77 288 448.254V390.066C288 369.972 300.898 352.91 318.797 346.628C353.164 335.082 384 306.082 384 272.004V240C384 224.836 377.812 210.715 368 198.633V162.5C368 144.832 353.672 138.781 336 149.004L311.484 163.18C303.633 161.145 295.703 160 288 160H224C216.301 160 208.367 161.145 200.516 163.18L176 149.004C158.332 138.781 144 144.832 144 162.5V198.633C134.188 210.715 128 224.836 128 240V272.004C128 295.285 142.488 316.192 162.578 330.816L162.558 330.847C166.73 333.706 169.503 338.535 169.503 344.003C169.503 352.831 162.327 360.003 153.503 360.003C148.983 360.003 144.929 358.112 142.023 355.097C115.004 334.629 96 305.035 96 272.004V240C96 221.477 102.012 204.023 112 188.625V140.992C112 105.656 140.645 93.554 176 113.996L203.461 129.883C210.309 128.719 217.172 128 224 128H288C294.828 128 301.688 128.719 308.539 129.883L336 113.996C371.359 93.555 400 105.656 400 140.992V188.625C409.984 204.023 416 221.477 416 240V272.004C416 319.613 376.75 360.145 330.469 376.363C330.414 376.41 330.36 376.535 330.281 376.551C324.265 378.863 320 384.676 320 391.504V448.254C320 457.098 327.156 464.254 336 464.254C337.336 464.254 338.562 463.879 339.797 463.566C421.969 430.41 480 350.066 480 256C480 132.285 379.719 32 256 32C132.285 32 32 132.285 32 256C32 353.41 94.254 436.066 181.121 466.895C181.566 466.942 181.973 467.129 182.437 467.129C187.714 467.129 191.999 462.832 191.999 457.567C191.999 452.286 187.714 448.005 182.437 448.005C182.324 448.005 182.324 447.911 182.246 447.864C129.086 446.442 129.027 384.005 112 384.005C103.156 384.005 96 376.849 96 368.005C96 359.161 103.156 352.005 112 352.005H119.988C152.008 352.005 147.433 416.005 192 416.005C209.668 416.005 224 430.333 224 448.005V476.005C224 491.458 211.473 504.005 195.996 504.005C194.308 504.005 192.719 503.661 191.109 503.349C81.203 474.613 0 374.926 0 256C0 114.617 114.617 0 256 0C397.383 0 512 114.617 512 256C512 364.41 444.508 456.848 349.328 494.16Z" fill="white"/>
</svg>
