<svg width="83" height="83" viewBox="0 0 83 83" fill="none" xmlns="http://www.w3.org/2000/svg">
<g clip-path="url(#clip0_722_2)">
<path fill-rule="evenodd" clip-rule="evenodd" d="M28.5131 51.8828C28.8573 51.8751 29.1996 51.9362 29.5198 52.0626C29.8401 52.189 30.1319 52.3781 30.378 52.6188C30.6242 52.8595 30.8198 53.147 30.9533 53.4643C31.0869 53.7817 31.1557 54.1225 31.1557 54.4668C31.1557 54.8111 31.0869 55.1519 30.9533 55.4693C30.8198 55.7866 30.6242 56.0741 30.378 56.3148C30.1319 56.5555 29.8401 56.7446 29.5198 56.871C29.1996 56.9974 28.8573 57.0585 28.5131 57.0508C27.8378 57.0357 27.1952 56.7568 26.723 56.2739C26.2507 55.7909 25.9863 55.1423 25.9863 54.4668C25.9863 53.7913 26.2507 53.1427 26.723 52.6598C27.1952 52.1768 27.8378 51.8979 28.5131 51.8828ZM20.938 44.4815C19.3027 33.1352 27.176 22.6136 38.5224 20.9783C49.8687 19.3429 60.3916 27.2162 62.0269 38.5626C63.6623 49.9089 55.789 60.4318 44.4426 62.0671C44.3155 62.0866 44.1936 62.0866 44.0678 62.1009L44.4517 62.0477C43.7789 62.1277 43.1015 61.9415 42.564 61.5288C42.0266 61.1162 41.6718 60.5099 41.5753 59.8392C41.4788 59.1686 41.6483 58.4868 42.0476 57.9394C42.4469 57.392 43.0444 57.0224 43.7125 56.9095L43.7086 56.9004H43.719C52.2265 55.6748 58.1259 47.786 56.9004 39.2785C55.6748 30.7697 47.7873 24.8702 39.2785 26.0957C30.7748 27.3213 24.8702 35.2102 26.097 43.7177C26.097 43.7215 26.097 43.7241 26.0996 43.7241L26.0905 43.728C26.1886 44.4094 26.0119 45.1018 25.5994 45.6529C25.1869 46.204 24.5724 46.5687 23.891 46.6668C23.2097 46.7648 22.5173 46.5881 21.9661 46.1756C21.415 45.7631 21.0503 45.1486 20.9523 44.4672L21.0094 44.8537C20.9912 44.7266 20.9562 44.6073 20.938 44.4815ZM62.2357 16.8659C62.2364 15.8324 62.6474 14.8415 63.3785 14.1109C64.1095 13.3804 65.1007 12.97 66.1341 12.97C67.1564 12.9703 68.1375 13.3729 68.8653 14.0907C69.5931 14.8086 70.0092 15.784 70.0235 16.8062V16.9281C70.0092 17.9503 69.5931 18.9257 68.8653 19.6436C68.1375 20.3615 67.1564 20.764 66.1341 20.7643C65.1002 20.7643 64.1086 20.3535 63.3776 19.6224C62.6465 18.8914 62.2357 17.8998 62.2357 16.8659ZM76.076 75.8931C71.5655 80.4503 65.3067 83 54.4843 83H28.5131C17.6907 83 11.4333 80.4503 6.92531 75.8931C2.47444 71.3982 0 65.1239 0 54.4869V28.5157C0 17.8748 2.47444 11.6044 6.92531 7.10947C11.4333 2.55095 17.6907 0 28.5131 0H54.483C65.3067 0 71.5642 2.55095 76.0747 7.10947C76.3639 7.39867 76.6285 7.71641 76.8956 8.03025C77.4429 8.50491 77.7969 9.20003 77.7969 9.98205C77.7969 10.67 77.5237 11.3297 77.0372 11.8161C76.5508 12.3025 75.8911 12.5758 75.2032 12.5758C74.4199 12.5758 73.7247 12.2205 73.2501 11.6706L73.2164 11.6978C72.9492 11.3801 72.6989 11.0507 72.4032 10.7537C68.4581 6.7645 62.6339 5.19917 53.1615 5.19917H29.8242C20.3545 5.19917 14.5419 6.7645 10.5968 10.7537C6.70225 14.6871 5.1875 20.5269 5.1875 29.8346V53.1745C5.1875 62.486 6.70225 68.3103 10.5968 72.2424C14.5419 76.2303 20.3545 77.8125 29.8242 77.8125H53.1641C62.6365 77.8125 68.4607 76.2303 72.4058 72.2424C76.3003 68.3103 77.7995 62.486 77.7995 53.1745V29.8359C77.8089 27.7661 77.7146 25.6972 77.5168 23.6368L77.5285 23.6343C77.4805 22.9568 77.698 22.2872 78.135 21.7672C78.572 21.2473 79.1941 20.9178 79.8698 20.8485C80.5455 20.7793 81.2216 20.9756 81.755 21.3961C82.2884 21.8166 82.6372 22.4281 82.7277 23.1012C82.7315 23.1388 82.7277 23.1739 82.7277 23.2115H82.7341C82.9078 24.9743 82.9965 26.7444 83 28.5157V54.4856C83 65.1239 80.523 71.3982 76.076 75.8931Z" fill="white"/>
</g>
<defs>
<clipPath id="clip0_722_2">
<rect width="83" height="83" fill="white"/>
</clipPath>
</defs>
</svg>
